<svg width="32" height="27" viewBox="0 0 32 27" fill="none" xmlns="http://www.w3.org/2000/svg">
<path d="M1 22.7329C9.20863 22.7263 17.3816 23.8038 25.3031 25.9372C26.4215 26.2391 27.5385 25.4156 27.5385 24.2656V22.7329M3.30769 1V2.14384C3.30769 2.4472 3.18613 2.73814 2.96974 2.95265C2.75335 3.16716 2.45987 3.28767 2.15385 3.28767H1M1 3.28767V2.71575C1 1.76866 1.77538 1 2.73077 1H28.6923M1 3.28767V17.0137M28.6923 1V2.14384C28.6923 2.77523 29.2092 3.28767 29.8462 3.28767H31M28.6923 1H29.2692C30.2246 1 31 1.76866 31 2.71575V17.5856C31 18.5327 30.2246 19.3014 29.2692 19.3014H28.6923M1 17.0137V17.5856C1 18.0407 1.18235 18.4771 1.50693 18.7988C1.83151 19.1206 2.27174 19.3014 2.73077 19.3014H3.30769M1 17.0137H2.15385C2.45987 17.0137 2.75335 17.1342 2.96974 17.3487C3.18613 17.5632 3.30769 17.8542 3.30769 18.1575V19.3014M28.6923 19.3014V18.1575C28.6923 17.8542 28.8139 17.5632 29.0303 17.3487C29.2466 17.1342 29.5401 17.0137 29.8462 17.0137H31M28.6923 19.3014H3.30769M20.6154 10.1507C20.6154 11.3641 20.1291 12.5279 19.2636 13.3859C18.398 14.244 17.2241 14.726 16 14.726C14.7759 14.726 13.602 14.244 12.7364 13.3859C11.8709 12.5279 11.3846 11.3641 11.3846 10.1507C11.3846 8.93723 11.8709 7.77348 12.7364 6.91543C13.602 6.05739 14.7759 5.57535 16 5.57535C17.2241 5.57535 18.398 6.05739 19.2636 6.91543C20.1291 7.77348 20.6154 8.93723 20.6154 10.1507ZM25.2308 10.1507H25.2431V10.1629H25.2308V10.1507ZM6.76923 10.1507H6.78154V10.1629H6.76923V10.1507Z" stroke="#1E84FF" stroke-width="2" stroke-linecap="round" stroke-linejoin="round"/>
</svg>
