<svg width="21" height="27" viewBox="0 0 21 27" fill="none" xmlns="http://www.w3.org/2000/svg">
<path d="M20 16.3846V13.0192C20 11.8717 19.5496 10.7711 18.7479 9.95963C17.9462 9.14818 16.8588 8.69231 15.725 8.69231H13.825C13.4471 8.69231 13.0846 8.54035 12.8174 8.26987C12.5501 7.99938 12.4 7.63252 12.4 7.25V5.32692C12.4 4.17935 11.9496 3.07878 11.1479 2.26733C10.3462 1.45587 9.2588 1 8.125 1H5.75M14.3 16.3846L10.5 12.5385M10.5 12.5385L6.7 16.3846M10.5 12.5385V20.2308M8.6 1H2.425C1.6384 1 1 1.64615 1 2.44231V24.5577C1 25.3538 1.6384 26 2.425 26H18.575C19.3616 26 20 25.3538 20 24.5577V12.5385C20 9.47827 18.7989 6.54342 16.661 4.37954C14.5231 2.21566 11.6235 1 8.6 1Z" stroke="#1E84FF" stroke-width="2" stroke-linecap="round" stroke-linejoin="round"/>
</svg>
