<svg width="522" height="67" viewBox="0 0 522 67" fill="none" xmlns="http://www.w3.org/2000/svg">
<path d="M36.8732 65.9854C21.6628 65.9706 9.33811 53.6948 9.39112 38.5712L9.48834 10.8355L37.4171 10.8626C52.6275 10.8774 64.9522 23.1532 64.8992 38.2768C64.8456 53.5837 52.2867 66.0003 36.8732 65.9854Z" fill="#1E84FF"/>
<path d="M38.4995 11.8501C53.7099 11.8649 66.0346 24.1407 65.9816 39.2643L65.8844 67L37.9556 66.9729C22.7452 66.9581 10.4205 54.6823 10.4735 39.5587C10.5271 24.2518 23.0861 11.8352 38.4995 11.8501Z" fill="#1E84FF"/>
<path d="M9.15864 4.54768C9.15864 7.0593 7.10841 9.09537 4.57932 9.09537C2.05023 9.09537 0 7.0593 0 4.54768C0 2.03607 2.05023 0 4.57932 0C7.10841 0 9.15864 2.03607 9.15864 4.54768Z" fill="#1E84FF"/>
<path d="M51.4827 53.7454H44.3639L32.4577 35.844V53.7454H25.3389V24.7229H32.4577L44.3639 42.7069V24.7229H51.4827V53.7454Z" fill="white"/>
<path d="M110.448 56.7859H103.172L86.6976 31.8562V56.7859H79.4219V20.4063H86.6976L103.172 45.388V20.4063H110.448V56.7859Z" fill="black"/>
<path fill-rule="evenodd" clip-rule="evenodd" d="M130.423 57.2543C127.651 57.2543 125.156 56.6471 122.939 55.4327C120.722 54.1836 118.972 52.4314 117.69 50.1761C116.443 47.9208 115.819 45.3186 115.819 42.3694C115.819 39.4201 116.46 36.8179 117.742 34.5626C119.058 32.3073 120.843 30.5725 123.095 29.3581C125.347 28.109 127.859 27.4845 130.63 27.4845C133.402 27.4845 135.914 28.109 138.166 29.3581C140.418 30.5725 142.185 32.3073 143.467 34.5626C144.784 36.8179 145.442 39.4201 145.442 42.3694C145.442 42.7922 145.428 43.2078 145.4 43.6164C143.886 43.8506 142.41 44.3981 141.077 45.2596C140.486 45.6279 139.922 46.0572 139.392 46.5479L131.087 54.2394L133.599 56.9736C132.583 57.1607 131.524 57.2543 130.423 57.2543ZM130.423 50.9048C131.739 50.9048 132.969 50.5925 134.112 49.968C135.29 49.3087 136.226 48.3372 136.919 47.0534C137.612 45.7696 137.958 44.2083 137.958 42.3694C137.958 39.6283 137.231 37.5292 135.775 36.0719C134.355 34.5799 132.605 33.834 130.526 33.834C128.448 33.834 126.698 34.5799 125.278 36.0719C123.892 37.5292 123.199 39.6283 123.199 42.3694C123.199 45.1104 123.874 47.2269 125.226 48.7189C126.611 50.1761 128.344 50.9048 130.423 50.9048Z" fill="black"/>
<path fill-rule="evenodd" clip-rule="evenodd" d="M162.985 54.9461L160.85 57.0465C161.723 57.185 162.627 57.2543 163.563 57.2543C166.37 57.2543 168.899 56.6471 171.151 55.4327C173.438 54.1836 175.239 52.4314 176.556 50.1761C177.907 47.9208 178.583 45.3186 178.583 42.3694C178.583 39.4201 177.924 36.8179 176.608 34.5626C175.326 32.3073 173.559 30.5725 171.307 29.3581C169.055 28.109 166.543 27.4845 163.771 27.4845C161 27.4845 158.488 28.109 156.236 29.3581C153.984 30.5725 152.199 32.3073 150.883 34.5626C149.601 36.8179 148.96 39.4201 148.96 42.3694C148.96 42.8023 148.973 43.2277 149 43.6457C151.234 44.0287 153.373 45.0957 155.079 46.8442L162.985 54.9461ZM163.563 50.9048C164.88 50.9048 166.11 50.5925 167.253 49.968C168.431 49.3087 169.367 48.3372 170.06 47.0534C170.753 45.7696 171.099 44.2083 171.099 42.3694C171.099 39.6283 170.371 37.5292 168.916 36.0719C167.496 34.5799 165.746 33.834 163.667 33.834C161.589 33.834 159.839 34.5799 158.418 36.0719C157.033 37.5292 156.34 39.6283 156.34 42.3694C156.34 45.1104 157.015 47.2269 158.366 48.7189C159.752 50.1761 161.485 50.9048 163.563 50.9048Z" fill="black"/>
<path fill-rule="evenodd" clip-rule="evenodd" d="M182.049 42.2653C182.049 39.3507 182.621 36.7658 183.764 34.5105C184.942 32.2553 186.536 30.5204 188.545 29.306C190.555 28.0916 192.789 27.4845 195.249 27.4845C197.12 27.4845 198.904 27.9008 200.602 28.7335C202.3 29.5316 203.651 30.6072 204.656 31.9603V18.2725H212.035V56.7859H204.656V52.5182C203.755 53.9407 202.49 55.0857 200.862 55.9531C199.234 56.8206 197.345 57.2543 195.197 57.2543C192.772 57.2543 190.555 56.6297 188.545 55.3807C186.536 54.1316 184.942 52.3794 183.764 50.1241C182.621 47.8341 182.049 45.2145 182.049 42.2653ZM204.708 42.3694C204.708 40.5998 204.361 39.0905 203.668 37.8414C202.975 36.5577 202.04 35.5861 200.862 34.9269C199.684 34.233 198.419 33.886 197.068 33.886C195.717 33.886 194.47 34.2156 193.326 34.8749C192.183 35.5341 191.248 36.5056 190.52 37.7894C189.827 39.0385 189.481 40.5304 189.481 42.2653C189.481 44.0001 189.827 45.5268 190.52 46.8452C191.248 48.129 192.183 49.1179 193.326 49.8118C194.504 50.5058 195.752 50.8527 197.068 50.8527C198.419 50.8527 199.684 50.5231 200.862 49.8639C202.04 49.1699 202.975 48.1984 203.668 46.9493C204.361 45.6656 204.708 44.1389 204.708 42.3694Z" fill="black"/>
<path d="M226.417 18.2725V56.7859H219.142V18.2725H226.417Z" fill="black"/>
<path fill-rule="evenodd" clip-rule="evenodd" d="M260.37 41.7448C260.37 42.7857 260.301 43.7225 260.162 44.5553H239.115C239.288 46.6371 240.015 48.2678 241.297 49.4475C242.579 50.6272 244.156 51.217 246.027 51.217C248.729 51.217 250.652 50.0547 251.795 47.73H259.643C258.811 50.5058 257.217 52.7957 254.861 54.6C252.505 56.3695 249.612 57.2543 246.182 57.2543C243.411 57.2543 240.916 56.6471 238.699 55.4327C236.516 54.1836 234.801 52.4314 233.554 50.1761C232.341 47.9208 231.735 45.3186 231.735 42.3694C231.735 39.3854 232.341 36.7658 233.554 34.5105C234.766 32.2553 236.464 30.5204 238.647 29.306C240.83 28.0916 243.341 27.4845 246.182 27.4845C248.92 27.4845 251.362 28.0743 253.51 29.254C255.693 30.4337 257.373 32.1165 258.551 34.3024C259.764 36.4536 260.37 38.9344 260.37 41.7448ZM252.835 39.663C252.8 37.7894 252.124 36.2974 250.808 35.1871C249.491 34.0421 247.88 33.4696 245.975 33.4696C244.173 33.4696 242.649 34.0248 241.401 35.1351C240.189 36.2107 239.444 37.72 239.167 39.663H252.835Z" fill="black"/>
<path d="M290.589 57.1502C288.06 57.1502 285.773 56.7165 283.729 55.8491C281.72 54.9816 280.126 53.7326 278.948 52.1018C277.77 50.4711 277.164 48.5454 277.129 46.3248H284.924C285.028 47.8168 285.548 48.9964 286.483 49.8639C287.454 50.7313 288.77 51.165 290.433 51.165C292.131 51.165 293.465 50.766 294.435 49.968C295.405 49.1352 295.89 48.0596 295.89 46.7412C295.89 45.6656 295.561 44.7808 294.903 44.0869C294.244 43.3929 293.413 42.8551 292.408 42.4735C291.438 42.0571 290.087 41.606 288.354 41.1203C285.998 40.4263 284.076 39.7498 282.586 39.0905C281.131 38.3966 279.866 37.373 278.792 36.0199C277.753 34.632 277.233 32.7931 277.233 30.5031C277.233 28.3519 277.77 26.4782 278.844 24.8822C279.918 23.2861 281.425 22.0718 283.365 21.239C285.305 20.3716 287.523 19.9379 290.017 19.9379C293.759 19.9379 296.791 20.8574 299.112 22.6963C301.468 24.5005 302.767 27.0334 303.01 30.2949H295.006C294.937 29.0458 294.4 28.0223 293.395 27.2242C292.425 26.3915 291.126 25.9751 289.498 25.9751C288.077 25.9751 286.934 26.3395 286.068 27.0681C285.236 27.7967 284.82 28.855 284.82 30.2428C284.82 31.2144 285.132 32.0297 285.756 32.689C286.414 33.3135 287.211 33.834 288.146 34.2503C289.117 34.632 290.468 35.083 292.2 35.6035C294.556 36.2974 296.479 36.9914 297.969 37.6853C299.459 38.3792 300.74 39.4201 301.815 40.808C302.889 42.1959 303.426 44.0175 303.426 46.2728C303.426 48.2158 302.923 50.02 301.918 51.6854C300.914 53.3509 299.441 54.6867 297.501 55.6929C295.561 56.6644 293.257 57.1502 290.589 57.1502Z" fill="black"/>
<path fill-rule="evenodd" clip-rule="evenodd" d="M336.498 41.7448C336.498 42.7857 336.429 43.7225 336.29 44.5553H315.242C315.415 46.6371 316.143 48.2678 317.425 49.4475C318.707 50.6272 320.283 51.217 322.154 51.217C324.857 51.217 326.78 50.0547 327.923 47.73H335.77C334.939 50.5058 333.345 52.7957 330.989 54.6C328.633 56.3695 325.74 57.2543 322.31 57.2543C319.538 57.2543 317.044 56.6471 314.826 55.4327C312.644 54.1836 310.929 52.4314 309.681 50.1761C308.469 47.9208 307.863 45.3186 307.863 42.3694C307.863 39.3854 308.469 36.7658 309.681 34.5105C310.894 32.2553 312.592 30.5204 314.775 29.306C316.957 28.0916 319.469 27.4845 322.31 27.4845C325.047 27.4845 327.49 28.0743 329.638 29.254C331.821 30.4337 333.501 32.1165 334.679 34.3024C335.892 36.4536 336.498 38.9344 336.498 41.7448ZM328.962 39.663C328.928 37.7894 328.252 36.2974 326.935 35.1871C325.619 34.0421 324.008 33.4696 322.102 33.4696C320.301 33.4696 318.776 34.0248 317.529 35.1351C316.316 36.2107 315.571 37.72 315.294 39.663H328.962Z" fill="black"/>
<path fill-rule="evenodd" clip-rule="evenodd" d="M368.573 41.7448C368.573 42.7857 368.504 43.7225 368.365 44.5553H347.317C347.491 46.6371 348.218 48.2678 349.5 49.4475C350.782 50.6272 352.358 51.217 354.229 51.217C356.932 51.217 358.855 50.0547 359.998 47.73H367.845C367.014 50.5058 365.42 52.7957 363.064 54.6C360.708 56.3695 357.815 57.2543 354.385 57.2543C351.614 57.2543 349.119 56.6471 346.902 55.4327C344.719 54.1836 343.004 52.4314 341.757 50.1761C340.544 47.9208 339.938 45.3186 339.938 42.3694C339.938 39.3854 340.544 36.7658 341.757 34.5105C342.969 32.2553 344.667 30.5204 346.85 29.306C349.032 28.0916 351.544 27.4845 354.385 27.4845C357.122 27.4845 359.565 28.0743 361.713 29.254C363.896 30.4337 365.576 32.1165 366.754 34.3024C367.967 36.4536 368.573 38.9344 368.573 41.7448ZM361.037 39.663C361.003 37.7894 360.327 36.2974 359.011 35.1871C357.694 34.0421 356.083 33.4696 354.177 33.4696C352.376 33.4696 350.851 34.0248 349.604 35.1351C348.391 36.2107 347.647 37.72 347.369 39.663H361.037Z" fill="black"/>
<path fill-rule="evenodd" clip-rule="evenodd" d="M372.013 42.2653C372.013 39.3507 372.584 36.7658 373.728 34.5105C374.906 32.2553 376.499 30.5204 378.509 29.306C380.519 28.0916 382.753 27.4845 385.213 27.4845C387.084 27.4845 388.868 27.9008 390.566 28.7335C392.264 29.5316 393.615 30.6072 394.62 31.9603V18.2725H401.999V56.7859H394.62V52.5182C393.719 53.9407 392.454 55.0857 390.826 55.9531C389.197 56.8206 387.309 57.2543 385.161 57.2543C382.736 57.2543 380.519 56.6297 378.509 55.3807C376.499 54.1316 374.906 52.3794 373.728 50.1241C372.584 47.8341 372.013 45.2145 372.013 42.2653ZM394.672 42.3694C394.672 40.5998 394.325 39.0905 393.632 37.8414C392.939 36.5577 392.004 35.5861 390.826 34.9269C389.648 34.233 388.383 33.886 387.032 33.886C385.681 33.886 384.434 34.2156 383.29 34.8749C382.147 35.5341 381.211 36.5056 380.484 37.7894C379.791 39.0385 379.444 40.5304 379.444 42.2653C379.444 44.0001 379.791 45.5268 380.484 46.8452C381.211 48.129 382.147 49.1179 383.29 49.8118C384.468 50.5058 385.715 50.8527 387.032 50.8527C388.383 50.8527 389.648 50.5231 390.826 49.8639C392.004 49.1699 392.939 48.1984 393.632 46.9493C394.325 45.6656 394.672 44.1389 394.672 42.3694Z" fill="black"/>
<rect x="417.137" y="28.5391" width="103.722" height="23.3222" rx="11.6611" fill="#1E84FF" fill-opacity="0.05"/>
<rect x="417.137" y="28.5391" width="103.722" height="23.3222" rx="11.6611" stroke="#1E84FF" stroke-width="0.5"/>
<path d="M432.598 39.8142C432.598 38.8622 432.813 38.0082 433.242 37.2522C433.671 36.4869 434.255 35.8895 434.992 35.4602C435.739 35.0309 436.565 34.8162 437.47 34.8162C438.534 34.8162 439.463 35.0729 440.256 35.5862C441.049 36.0995 441.628 36.8275 441.992 37.7702H440.466C440.195 37.1822 439.803 36.7295 439.29 36.4122C438.786 36.0949 438.179 35.9362 437.47 35.9362C436.789 35.9362 436.177 36.0949 435.636 36.4122C435.095 36.7295 434.67 37.1822 434.362 37.7702C434.054 38.3489 433.9 39.0302 433.9 39.8142C433.9 40.5889 434.054 41.2702 434.362 41.8582C434.67 42.4369 435.095 42.8849 435.636 43.2022C436.177 43.5195 436.789 43.6782 437.47 43.6782C438.179 43.6782 438.786 43.5242 439.29 43.2162C439.803 42.8989 440.195 42.4462 440.466 41.8582H441.992C441.628 42.7915 441.049 43.5149 440.256 44.0282C439.463 44.5322 438.534 44.7842 437.47 44.7842C436.565 44.7842 435.739 44.5742 434.992 44.1542C434.255 43.7249 433.671 43.1322 433.242 42.3762C432.813 41.6202 432.598 40.7662 432.598 39.8142ZM447.235 44.8262C446.516 44.8262 445.863 44.6629 445.275 44.3362C444.696 44.0095 444.239 43.5475 443.903 42.9502C443.576 42.3435 443.413 41.6435 443.413 40.8502C443.413 40.0662 443.581 39.3755 443.917 38.7782C444.262 38.1715 444.729 37.7095 445.317 37.3922C445.905 37.0655 446.563 36.9022 447.291 36.9022C448.019 36.9022 448.677 37.0655 449.265 37.3922C449.853 37.7095 450.315 38.1669 450.651 38.7642C450.996 39.3615 451.169 40.0569 451.169 40.8502C451.169 41.6435 450.991 42.3435 450.637 42.9502C450.291 43.5475 449.82 44.0095 449.223 44.3362C448.625 44.6629 447.963 44.8262 447.235 44.8262ZM447.235 43.7062C447.692 43.7062 448.121 43.5989 448.523 43.3842C448.924 43.1695 449.246 42.8475 449.489 42.4182C449.741 41.9889 449.867 41.4662 449.867 40.8502C449.867 40.2342 449.745 39.7115 449.503 39.2822C449.26 38.8529 448.943 38.5355 448.551 38.3302C448.159 38.1155 447.734 38.0082 447.277 38.0082C446.81 38.0082 446.381 38.1155 445.989 38.3302C445.606 38.5355 445.298 38.8529 445.065 39.2822C444.831 39.7115 444.715 40.2342 444.715 40.8502C444.715 41.4755 444.827 42.0029 445.051 42.4322C445.284 42.8615 445.592 43.1835 445.975 43.3982C446.357 43.6035 446.777 43.7062 447.235 43.7062ZM456.582 36.8882C457.515 36.8882 458.271 37.1729 458.85 37.7422C459.428 38.3022 459.718 39.1142 459.718 40.1782V44.7002H458.458V40.3602C458.458 39.5949 458.266 39.0115 457.884 38.6102C457.501 38.1995 456.978 37.9942 456.316 37.9942C455.644 37.9942 455.107 38.2042 454.706 38.6242C454.314 39.0442 454.118 39.6555 454.118 40.4582V44.7002H452.844V37.0282H454.118V38.1202C454.37 37.7282 454.71 37.4249 455.14 37.2102C455.578 36.9955 456.059 36.8882 456.582 36.8882ZM461.323 40.8502C461.323 40.0569 461.481 39.3662 461.799 38.7782C462.116 38.1809 462.555 37.7189 463.115 37.3922C463.684 37.0655 464.333 36.9022 465.061 36.9022C466.003 36.9022 466.778 37.1309 467.385 37.5882C468.001 38.0455 468.407 38.6802 468.603 39.4922H467.231C467.1 39.0255 466.843 38.6569 466.461 38.3862C466.087 38.1155 465.621 37.9802 465.061 37.9802C464.333 37.9802 463.745 38.2322 463.297 38.7362C462.849 39.2309 462.625 39.9355 462.625 40.8502C462.625 41.7742 462.849 42.4882 463.297 42.9922C463.745 43.4962 464.333 43.7482 465.061 43.7482C465.621 43.7482 466.087 43.6175 466.461 43.3562C466.834 43.0949 467.091 42.7215 467.231 42.2362H468.603C468.397 43.0202 467.987 43.6502 467.371 44.1262C466.755 44.5929 465.985 44.8262 465.061 44.8262C464.333 44.8262 463.684 44.6629 463.115 44.3362C462.555 44.0095 462.116 43.5475 461.799 42.9502C461.481 42.3529 461.323 41.6529 461.323 40.8502ZM470.961 35.7822C470.718 35.7822 470.513 35.6982 470.345 35.5302C470.177 35.3622 470.093 35.1569 470.093 34.9142C470.093 34.6715 470.177 34.4662 470.345 34.2982C470.513 34.1302 470.718 34.0462 470.961 34.0462C471.194 34.0462 471.39 34.1302 471.549 34.2982C471.717 34.4662 471.801 34.6715 471.801 34.9142C471.801 35.1569 471.717 35.3622 471.549 35.5302C471.39 35.6982 471.194 35.7822 470.961 35.7822ZM471.577 37.0282V44.7002H470.303V37.0282H471.577ZM480.748 40.5702C480.748 40.8129 480.734 41.0695 480.706 41.3402H474.574C474.621 42.0962 474.877 42.6889 475.344 43.1182C475.82 43.5382 476.394 43.7482 477.066 43.7482C477.617 43.7482 478.074 43.6222 478.438 43.3702C478.811 43.1089 479.073 42.7635 479.222 42.3342H480.594C480.389 43.0715 479.978 43.6735 479.362 44.1402C478.746 44.5975 477.981 44.8262 477.066 44.8262C476.338 44.8262 475.685 44.6629 475.106 44.3362C474.537 44.0095 474.089 43.5475 473.762 42.9502C473.435 42.3435 473.272 41.6435 473.272 40.8502C473.272 40.0569 473.431 39.3615 473.748 38.7642C474.065 38.1669 474.509 37.7095 475.078 37.3922C475.657 37.0655 476.319 36.9022 477.066 36.9022C477.794 36.9022 478.438 37.0609 478.998 37.3782C479.558 37.6955 479.987 38.1342 480.286 38.6942C480.594 39.2449 480.748 39.8702 480.748 40.5702ZM479.432 40.3042C479.432 39.8189 479.325 39.4035 479.11 39.0582C478.895 38.7035 478.601 38.4375 478.228 38.2602C477.864 38.0735 477.458 37.9802 477.01 37.9802C476.366 37.9802 475.815 38.1855 475.358 38.5962C474.91 39.0069 474.653 39.5762 474.588 40.3042H479.432ZM483.704 38.2742C483.928 37.8355 484.245 37.4949 484.656 37.2522C485.076 37.0095 485.584 36.8882 486.182 36.8882V38.2042H485.846C484.418 38.2042 483.704 38.9789 483.704 40.5282V44.7002H482.43V37.0282H483.704V38.2742ZM490.816 36.9022C491.479 36.9022 492.058 37.0469 492.552 37.3362C493.056 37.6255 493.43 37.9895 493.672 38.4282V37.0282H494.96V44.8682C494.96 45.5682 494.811 46.1889 494.512 46.7302C494.214 47.2809 493.784 47.7102 493.224 48.0182C492.674 48.3262 492.03 48.4802 491.292 48.4802C490.284 48.4802 489.444 48.2422 488.772 47.7662C488.1 47.2902 487.704 46.6415 487.582 45.8202H488.842C488.982 46.2869 489.272 46.6602 489.71 46.9402C490.149 47.2295 490.676 47.3742 491.292 47.3742C491.992 47.3742 492.562 47.1549 493 46.7162C493.448 46.2775 493.672 45.6615 493.672 44.8682V43.2582C493.42 43.7062 493.047 44.0795 492.552 44.3782C492.058 44.6769 491.479 44.8262 490.816 44.8262C490.135 44.8262 489.514 44.6582 488.954 44.3222C488.404 43.9862 487.97 43.5149 487.652 42.9082C487.335 42.3015 487.176 41.6109 487.176 40.8362C487.176 40.0522 487.335 39.3662 487.652 38.7782C487.97 38.1809 488.404 37.7189 488.954 37.3922C489.514 37.0655 490.135 36.9022 490.816 36.9022ZM493.672 40.8502C493.672 40.2715 493.556 39.7675 493.322 39.3382C493.089 38.9089 492.772 38.5822 492.37 38.3582C491.978 38.1249 491.544 38.0082 491.068 38.0082C490.592 38.0082 490.158 38.1202 489.766 38.3442C489.374 38.5682 489.062 38.8949 488.828 39.3242C488.595 39.7535 488.478 40.2575 488.478 40.8362C488.478 41.4242 488.595 41.9375 488.828 42.3762C489.062 42.8055 489.374 43.1369 489.766 43.3702C490.158 43.5942 490.592 43.7062 491.068 43.7062C491.544 43.7062 491.978 43.5942 492.37 43.3702C492.772 43.1369 493.089 42.8055 493.322 42.3762C493.556 41.9375 493.672 41.4289 493.672 40.8502ZM504.113 40.5702C504.113 40.8129 504.099 41.0695 504.071 41.3402H497.939C497.986 42.0962 498.242 42.6889 498.709 43.1182C499.185 43.5382 499.759 43.7482 500.431 43.7482C500.982 43.7482 501.439 43.6222 501.803 43.3702C502.176 43.1089 502.438 42.7635 502.587 42.3342H503.959C503.754 43.0715 503.343 43.6735 502.727 44.1402C502.111 44.5975 501.346 44.8262 500.431 44.8262C499.703 44.8262 499.05 44.6629 498.471 44.3362C497.902 44.0095 497.454 43.5475 497.127 42.9502C496.8 42.3435 496.637 41.6435 496.637 40.8502C496.637 40.0569 496.796 39.3615 497.113 38.7642C497.43 38.1669 497.874 37.7095 498.443 37.3922C499.022 37.0655 499.684 36.9022 500.431 36.9022C501.159 36.9022 501.803 37.0609 502.363 37.3782C502.923 37.6955 503.352 38.1342 503.651 38.6942C503.959 39.2449 504.113 39.8702 504.113 40.5702ZM502.797 40.3042C502.797 39.8189 502.69 39.4035 502.475 39.0582C502.26 38.7035 501.966 38.4375 501.593 38.2602C501.229 38.0735 500.823 37.9802 500.375 37.9802C499.731 37.9802 499.18 38.1855 498.723 38.5962C498.275 39.0069 498.018 39.5762 497.953 40.3042H502.797Z" fill="#1E84FF"/>
</svg>
